<mxfile host="app.diagrams.net" modified="2024-05-09T07:27:11.816Z" agent="Mozilla/5.0 (Macintosh; Intel Mac OS X 10_15_7) AppleWebKit/537.36 (KHTML, like Gecko) Chrome/124.0.0.0 Safari/537.36 Edg/124.0.0.0" version="24.3.1" etag="tygCptaDJrGzGAyG4wwn" type="github">
  <diagram name="第 1 页" id="Mk54S4_TGp3b_JVMVYZm">
    <mxGraphModel>
      <root>
        <mxCell id="0" />
        <mxCell id="1" parent="0" />
      </root>
    </mxGraphModel>
  </diagram>
</mxfile>
